<?xml version="1.0" encoding="UTF-8" standalone="no"?>
<svg
   xmlns:dc="http://purl.org/dc/elements/1.1/"
   xmlns:cc="http://creativecommons.org/ns#"
   xmlns:rdf="http://www.w3.org/1999/02/22-rdf-syntax-ns#"
   xmlns:svg="http://www.w3.org/2000/svg"
   xmlns="http://www.w3.org/2000/svg"
   xmlns:sodipodi="http://sodipodi.sourceforge.net/DTD/sodipodi-0.dtd"
   xmlns:inkscape="http://www.inkscape.org/namespaces/inkscape"
   width="5.8in"
   height="2.495in"
   viewBox="0 0 5.8 2.495"
   id="svg2"
   version="1.1"
   inkscape:version="0.91 r13725"
   sodipodi:docname="PiZeroCase.svg">
  <metadata
     id="metadata162">
    <rdf:RDF>
      <cc:Work
         rdf:about="">
        <dc:format>image/svg+xml</dc:format>
        <dc:type
           rdf:resource="http://purl.org/dc/dcmitype/StillImage" />
        <dc:title />
      </cc:Work>
    </rdf:RDF>
  </metadata>
  <defs
     id="defs160">
    <inkscape:path-effect
       effect="skeletal"
       id="path-effect4405"
       is_visible="true"
       pattern="M 0,0 1,0"
       copytype="single_stretched"
       prop_scale="1"
       scale_y_rel="false"
       spacing="0"
       normal_offset="0"
       tang_offset="0"
       prop_units="false"
       vertical_pattern="false"
       fuse_tolerance="0" />
    <inkscape:path-effect
       effect="skeletal"
       id="path-effect4372"
       is_visible="true"
       pattern="M 0,5 C 0,2.24 2.24,0 5,0 7.76,0 10,2.24 10,5 10,7.76 7.76,10 5,10 2.24,10 0,7.76 0,5 Z"
       copytype="single_stretched"
       prop_scale="1"
       scale_y_rel="false"
       spacing="0"
       normal_offset="0"
       tang_offset="0"
       prop_units="false"
       vertical_pattern="false"
       fuse_tolerance="0" />
    <inkscape:path-effect
       effect="powerstroke"
       id="path-effect4368"
       is_visible="true"
       offset_points="0,0.005555555"
       sort_points="true"
       interpolator_type="CubicBezierJohan"
       interpolator_beta="0.2"
       start_linecap_type="zerowidth"
       linejoin_type="round"
       miter_limit="4"
       end_linecap_type="zerowidth"
       cusp_linecap_type="round" />
    <inkscape:path-effect
       fuse_tolerance="0"
       vertical_pattern="false"
       prop_units="false"
       tang_offset="0"
       normal_offset="0"
       spacing="0"
       scale_y_rel="false"
       prop_scale="1"
       copytype="single_stretched"
       pattern="m 0.73340607,4.970459 c 0,-2.76 2.24000003,-5.00000002 5.00000003,-5.00000002 2.76,0 4.9999999,2.24000002 4.9999999,5.00000002 0,2.76 -2.2399999,5 -4.9999999,5 -2.76,0 -5.00000003,-2.24 -5.00000003,-5 z"
       is_visible="true"
       id="path-effect4144"
       effect="skeletal" />
    <inkscape:path-effect
       fuse_tolerance="0"
       vertical_pattern="false"
       prop_units="false"
       tang_offset="0"
       normal_offset="0"
       spacing="0"
       scale_y_rel="false"
       prop_scale="1"
       copytype="single_stretched"
       pattern="M 0,5 C 0,2.24 2.24,0 5,0 7.76,0 10,2.24 10,5 10,7.76 7.76,10 5,10 2.24,10 0,7.76 0,5 Z"
       is_visible="true"
       id="path-effect4140"
       effect="skeletal" />
    <inkscape:path-effect
       fuse_tolerance="0"
       vertical_pattern="false"
       prop_units="false"
       tang_offset="0"
       normal_offset="0"
       spacing="0"
       scale_y_rel="false"
       prop_scale="1"
       copytype="single_stretched"
       pattern="m -18.373737,-28.779581 c 0,-2.76 2.24,-5 5,-5 2.76,0 5.0000002,2.24 5.0000002,5 0,2.76 -2.2400002,5 -5.0000002,5 -2.76,0 -5,-2.24 -5,-5 z"
       is_visible="true"
       id="path-effect4144-9"
       effect="skeletal" />
  </defs>
  <sodipodi:namedview
     pagecolor="#ffffff"
     bordercolor="#666666"
     borderopacity="1"
     objecttolerance="10"
     gridtolerance="10"
     guidetolerance="10"
     inkscape:pageopacity="0"
     inkscape:pageshadow="2"
     inkscape:window-width="1280"
     inkscape:window-height="657"
     id="namedview158"
     showgrid="false"
     showborder="false"
     inkscape:object-paths="false"
     inkscape:object-nodes="true"
     inkscape:zoom="3.1535336"
     inkscape:cx="30.087237"
     inkscape:cy="75.775151"
     inkscape:window-x="-8"
     inkscape:window-y="-8"
     inkscape:window-maximized="1"
     inkscape:current-layer="svg2"
     inkscape:snap-nodes="false"
     inkscape:snap-global="false"
     inkscape:snap-bbox="false"
     inkscape:bbox-paths="true"
     inkscape:bbox-nodes="true" />
  <path
     inkscape:connector-curvature="0"
     style="fill:none;stroke:#fc0000;stroke-width:0.01111111;stroke-miterlimit:4;stroke-dasharray:none;stroke-opacity:1;opacity:1"
     id="path28"
     d="m 0.785,2.21 0.475,0 0,-0.475 -0.475,0 0,0.475 z" />
  <circle
     style="fill:none;stroke:#000000;stroke-width:0.01111111;stroke-miterlimit:4;stroke-dasharray:none"
     id="circle6"
     r="0.050000001"
     cy="1.4349999"
     cx="2.4200001" />
  <circle
     style="fill:none;stroke:#000000;stroke-width:0.01111111;stroke-miterlimit:4;stroke-dasharray:none"
     id="circle8"
     r="0.050000001"
     cy="2.3599999"
     cx="2.4200001" />
  <circle
     style="fill:none;stroke:#000000;stroke-width:0.01111111;stroke-miterlimit:4;stroke-dasharray:none"
     id="circle10"
     r="0.050000001"
     cy="1.4349999"
     cx="0.13500001" />
  <circle
     style="fill:none;stroke:#000000;stroke-width:0.01111111;stroke-miterlimit:4;stroke-dasharray:none"
     id="circle12"
     r="0.050000001"
     cy="2.3599999"
     cx="0.13500001" />
  <path
     inkscape:connector-curvature="0"
     style="fill:none;stroke:#00ff00;stroke-width:0.01111111;stroke-miterlimit:4;stroke-dasharray:none;stroke-opacity:1"
     id="path14"
     d="M 2.42,2.495 A 0.135,0.135 0 0 0 2.555,2.36" />
  <path
     inkscape:connector-curvature="0"
     style="fill:none;stroke:#00ff00;stroke-width:0.01111111;stroke-miterlimit:4;stroke-dasharray:none;stroke-opacity:1"
     id="path16"
     d="M 2.555,1.435 A 0.135,0.135 0 0 0 2.42,1.3" />
  <path
     inkscape:connector-curvature="0"
     style="fill:none;stroke:#00ff00;stroke-width:0.01111111;stroke-miterlimit:4;stroke-dasharray:none;stroke-opacity:1"
     id="path18"
     d="M 0.135,1.3 A 0.135,0.135 0 0 0 0,1.435" />
  <path
     inkscape:connector-curvature="0"
     style="fill:none;stroke:#00ff00;stroke-width:0.01111111;stroke-miterlimit:4;stroke-dasharray:none;stroke-opacity:1"
     id="path20"
     d="M 0,2.36 A 0.135,0.135 0 0 0 0.135,2.495" />
  <line
     style="fill:none;stroke:#00ff00;stroke-width:0.01111111;stroke-miterlimit:4;stroke-dasharray:none;stroke-opacity:1"
     id="line22"
     y2="1.4349999"
     x2="2.5550001"
     y1="2.3599999"
     x1="2.5550001" />
  <line
     style="fill:none;stroke:#00ff00;stroke-width:0.01111111;stroke-miterlimit:4;stroke-dasharray:none;stroke-opacity:1"
     id="line24"
     y2="2.4949999"
     x2="0.13500001"
     y1="2.4949999"
     x1="0.13500001" />
  <line
     style="fill:none;stroke:#00ff00;stroke-width:0.01111111;stroke-miterlimit:4;stroke-dasharray:none;stroke-opacity:1"
     id="line26"
     y2="2.3599999"
     x2="0"
     y1="1.4349999"
     x1="0" />
  <line
     style="fill:none;stroke:#00ff00;stroke-width:0.01111111;stroke-miterlimit:4;stroke-dasharray:none;stroke-opacity:1"
     id="line30"
     y2="1.55"
     x2="2.0899999"
     y1="1.55"
     x1="0.28" />
  <line
     style="fill:none;stroke:#00ff00;stroke-width:0.01111111;stroke-miterlimit:4;stroke-dasharray:none;stroke-opacity:1"
     id="line32"
     y2="1.75"
     x2="2.0899999"
     y1="1.55"
     x1="2.0899999" />
  <line
     style="fill:none;stroke:#00ff00;stroke-width:0.01111111;stroke-miterlimit:4;stroke-dasharray:none;stroke-opacity:1"
     id="line34"
     y2="1.75"
     x2="2.29"
     y1="1.75"
     x1="2.0899999" />
  <line
     style="fill:none;stroke:#00ff00;stroke-width:0.01111111;stroke-miterlimit:4;stroke-dasharray:none;stroke-opacity:1"
     id="line36"
     y2="2.1949999"
     x2="0.71499997"
     y1="2.4949999"
     x1="0.71499997" />
  <line
     style="fill:none;stroke:#00ff00;stroke-width:0.01111111;stroke-miterlimit:4;stroke-dasharray:none;stroke-opacity:1"
     id="line38"
     y2="2.1949999"
     x2="0.27000001"
     y1="2.1949999"
     x1="0.71499997" />
  <line
     style="fill:none;stroke:#00ff00;stroke-width:0.01111111;stroke-miterlimit:4;stroke-dasharray:none;stroke-opacity:1"
     id="line40"
     y2="2.4949999"
     x2="0.27000001"
     y1="2.1949999"
     x1="0.27000001" />
  <line
     style="fill:none;stroke:#00ff00;stroke-width:0.01111111;stroke-miterlimit:4;stroke-dasharray:none;stroke-opacity:1"
     id="line42"
     y2="2.4949999"
     x2="0.27000001"
     y1="2.4949999"
     x1="0.13500001" />
  <line
     style="fill:none;stroke:#00ff00;stroke-width:0.01111111;stroke-miterlimit:4;stroke-dasharray:none;stroke-opacity:1"
     id="line44"
     y2="2.4949999"
     x2="2.4200001"
     y1="2.4949999"
     x1="0.71499997" />
  <line
     style="fill:none;stroke:#00ff00;stroke-width:0.01111111;stroke-miterlimit:4;stroke-dasharray:none;stroke-opacity:1"
     id="line46"
     y2="1.55"
     x2="0.28"
     y1="1.4349999"
     x1="0.28" />
  <line
     style="fill:none;stroke:#00ff00;stroke-width:0.01111111;stroke-miterlimit:4;stroke-dasharray:none;stroke-opacity:1"
     id="line48"
     y2="1.3"
     x2="0.145"
     y1="1.3"
     x1="0.13500001" />
  <path
     inkscape:connector-curvature="0"
     style="fill:none;stroke:#00ff00;stroke-width:0.01111111;stroke-miterlimit:4;stroke-dasharray:none;stroke-opacity:1"
     id="path50"
     d="M 0.28,1.435 A 0.135,0.135 0 0 0 0.145,1.3" />
  <line
     style="fill:none;stroke:#00ff00;stroke-width:0.01111111;stroke-miterlimit:4;stroke-dasharray:none;stroke-opacity:1"
     id="line52"
     y2="1.75"
     x2="2.29"
     y1="1.4349999"
     x1="2.29" />
  <line
     style="fill:none;stroke:#00ff00;stroke-width:0.01111111;stroke-miterlimit:4;stroke-dasharray:none;stroke-opacity:1"
     id="line54"
     y2="1.3"
     x2="2.4200001"
     y1="1.3"
     x1="2.425" />
  <path
     inkscape:connector-curvature="0"
     style="fill:none;stroke:#00ff00;stroke-width:0.01111111;stroke-miterlimit:4;stroke-dasharray:none;stroke-opacity:1"
     id="path56"
     d="M 2.29,1.435 A 0.135,0.135 0 0 1 2.425,1.3" />
  <circle
     style="fill:none;stroke:#0080fd;stroke-width:0.01111111;stroke-miterlimit:4;stroke-dasharray:none;stroke-opacity:1"
     id="circle58"
     r="0.12"
     cy="1.4074194"
     cx="0.41964525" />
  <circle
     style="fill:none;stroke:#0080fd;stroke-width:0.01111111;stroke-miterlimit:4;stroke-dasharray:none;stroke-opacity:1"
     id="circle60"
     r="0.12"
     cy="1.4074194"
     cx="0.68542057" />
  <circle
     style="fill:none;stroke:#0080fd;stroke-width:0.01111111;stroke-miterlimit:4;stroke-dasharray:none;stroke-opacity:1"
     id="circle62"
     r="0.12"
     cy="1.4074194"
     cx="0.96168703" />
  <circle
     style="fill:none;stroke:#0080fd;stroke-width:0.01111111;stroke-miterlimit:4;stroke-dasharray:none;stroke-opacity:1"
     id="circle64"
     r="0.12"
     cy="1.4074194"
     cx="1.2274623" />
  <circle
     style="fill:none;stroke:#e08024;stroke-width:0.01111111;stroke-miterlimit:4;stroke-dasharray:none;stroke-opacity:1"
     id="circle66"
     r="0.050000001"
     cy="1.4074194"
     cx="0.41964525" />
  <circle
     style="fill:none;stroke:#e08024;stroke-width:0.01111111;stroke-miterlimit:4;stroke-dasharray:none;stroke-opacity:1"
     id="circle68"
     r="0.050000001"
     cy="1.4074194"
     cx="0.68542057" />
  <circle
     style="fill:none;stroke:#e08024;stroke-width:0.01111111;stroke-miterlimit:4;stroke-dasharray:none;stroke-opacity:1"
     id="circle70"
     r="0.050000001"
     cy="1.4074194"
     cx="0.96168703" />
  <circle
     style="fill:none;stroke:#e08024;stroke-width:0.01111111;stroke-miterlimit:4;stroke-dasharray:none;stroke-opacity:1"
     id="circle72"
     r="0.050000001"
     cy="1.4074194"
     cx="1.2274623" />
  <circle
     style="fill:none;stroke:#000000;stroke-width:0.01111111;stroke-miterlimit:4;stroke-dasharray:none"
     id="circle74"
     r="0.050000001"
     cy="0.13500001"
     cx="2.4200001" />
  <circle
     style="fill:none;stroke:#000000;stroke-width:0.01111111;stroke-miterlimit:4;stroke-dasharray:none"
     id="circle76"
     r="0.050000001"
     cy="1.0599999"
     cx="2.4200001" />
  <circle
     style="fill:none;stroke:#000000;stroke-width:0.01111111;stroke-miterlimit:4;stroke-dasharray:none"
     id="circle78"
     r="0.050000001"
     cy="0.13500001"
     cx="0.13500001" />
  <circle
     style="fill:none;stroke:#000000;stroke-width:0.01111111;stroke-miterlimit:4;stroke-dasharray:none"
     id="circle80"
     r="0.050000001"
     cy="1.0599999"
     cx="0.13500001" />
  <path
     inkscape:connector-curvature="0"
     style="fill:none;stroke:#00ff00;stroke-width:0.01111111;stroke-miterlimit:4;stroke-dasharray:none;stroke-opacity:1"
     id="path82"
     d="M 2.42,1.195 A 0.135,0.135 0 0 0 2.555,1.06" />
  <path
     inkscape:connector-curvature="0"
     style="fill:none;stroke:#00ff00;stroke-width:0.01111111;stroke-miterlimit:4;stroke-dasharray:none;stroke-opacity:1"
     id="path84"
     d="M 2.555,0.135 A 0.135,0.135 0 0 0 2.42,0" />
  <path
     inkscape:connector-curvature="0"
     style="fill:none;stroke:#00ff00;stroke-width:0.01111111;stroke-miterlimit:4;stroke-dasharray:none;stroke-opacity:1"
     id="path86"
     d="M 0.135,0 A 0.135,0.135 0 0 0 0,0.135" />
  <path
     inkscape:connector-curvature="0"
     style="fill:none;stroke:#00ff00;stroke-width:0.01111111;stroke-miterlimit:4;stroke-dasharray:none;stroke-opacity:1"
     id="path88"
     d="M 0,1.06 A 0.135,0.135 0 0 0 0.135,1.195" />
  <line
     style="fill:none;stroke:#00ff00;stroke-width:0.01111111;stroke-miterlimit:4;stroke-dasharray:none;stroke-opacity:1"
     id="line90"
     y2="0.13500001"
     x2="2.5550001"
     y1="1.0599999"
     x1="2.5550001" />
  <line
     style="fill:none;stroke:#00ff00;stroke-width:0.01111111;stroke-miterlimit:4;stroke-dasharray:none;stroke-opacity:1"
     id="line92"
     y2="1.1950001"
     x2="0.13500001"
     y1="1.1950001"
     x1="0.13500001" />
  <line
     style="fill:none;stroke:#00ff00;stroke-width:0.01111111;stroke-miterlimit:4;stroke-dasharray:none;stroke-opacity:1"
     id="line94"
     y2="1.0599999"
     x2="0"
     y1="0.13499999"
     x1="0" />
  <line
     style="fill:none;stroke:#00ff00;stroke-width:0.01111111;stroke-miterlimit:4;stroke-dasharray:none;stroke-opacity:1"
     id="line96"
     y2="0.25"
     x2="2.0899999"
     y1="0.25"
     x1="0.28" />
  <line
     style="fill:none;stroke:#00ff00;stroke-width:0.01111111;stroke-miterlimit:4;stroke-dasharray:none;stroke-opacity:1"
     id="line98"
     y2="0.44999999"
     x2="2.0899999"
     y1="0.25"
     x1="2.0899999" />
  <line
     style="fill:none;stroke:#00ff00;stroke-width:0.01111111;stroke-miterlimit:4;stroke-dasharray:none;stroke-opacity:1"
     id="line100"
     y2="0.44999999"
     x2="2.29"
     y1="0.44999999"
     x1="2.0899999" />
  <line
     style="fill:none;stroke:#00ff00;stroke-width:0.01111111;stroke-miterlimit:4;stroke-dasharray:none;stroke-opacity:1"
     id="line102"
     y2="0.25"
     x2="0.28"
     y1="0.13500001"
     x1="0.28" />
  <line
     style="fill:none;stroke:#00ff00;stroke-width:0.01111111;stroke-miterlimit:4;stroke-dasharray:none;stroke-opacity:1"
     id="line104"
     y2="0"
     x2="0.145"
     y1="0"
     x1="0.13500001" />
  <path
     inkscape:connector-curvature="0"
     style="fill:none;stroke:#00ff00;stroke-width:0.01111111;stroke-miterlimit:4;stroke-dasharray:none;stroke-opacity:1"
     id="path106"
     d="M 0.28,0.135 A 0.135,0.135 0 0 0 0.145,0" />
  <line
     style="fill:none;stroke:#00ff00;stroke-width:0.01111111;stroke-miterlimit:4;stroke-dasharray:none;stroke-opacity:1"
     id="line108"
     y2="0.44999999"
     x2="2.29"
     y1="0.13500001"
     x1="2.29" />
  <line
     style="fill:none;stroke:#00ff00;stroke-width:0.01111111;stroke-miterlimit:4;stroke-dasharray:none;stroke-opacity:1"
     id="line110"
     y2="0"
     x2="2.4200001"
     y1="0"
     x1="2.425" />
  <path
     inkscape:connector-curvature="0"
     style="fill:none;stroke:#00ff00;stroke-width:0.01111111;stroke-miterlimit:4;stroke-dasharray:none;stroke-opacity:1"
     id="path112"
     d="M 2.29,0.135 A 0.135,0.135 0 0 1 2.425,0" />
  <line
     style="fill:none;stroke:#00ff00;stroke-width:0.01111111;stroke-miterlimit:4;stroke-dasharray:none;stroke-opacity:1"
     id="line114"
     y2="1.1950001"
     x2="2.4200001"
     y1="1.1950001"
     x1="0.13500001" />
  <circle
     style="fill:none;stroke:#000000;stroke-width:0.01111111;stroke-miterlimit:4;stroke-dasharray:none"
     id="circle116"
     r="0.050000001"
     cy="0.13500001"
     cx="3.3800001" />
  <circle
     style="fill:none;stroke:#000000;stroke-width:0.01111111;stroke-miterlimit:4;stroke-dasharray:none"
     id="circle118"
     r="0.050000001"
     cy="1.0599999"
     cx="3.3800001" />
  <circle
     style="fill:none;stroke:#000000;stroke-width:0.01111111;stroke-miterlimit:4;stroke-dasharray:none"
     id="circle120"
     r="0.050000001"
     cy="0.13500001"
     cx="5.665" />
  <circle
     style="fill:none;stroke:#000000;stroke-width:0.01111111;stroke-miterlimit:4;stroke-dasharray:none"
     id="circle122"
     r="0.050000001"
     cy="1.0599999"
     cx="5.665" />
  <path
     inkscape:connector-curvature="0"
     style="fill:none;stroke:#00ff00;stroke-width:0.01111111;stroke-miterlimit:4;stroke-dasharray:none;stroke-opacity:1"
     id="path124"
     d="M 3.38,1.195 A 0.135,0.135 0 0 1 3.245,1.06" />
  <path
     inkscape:connector-curvature="0"
     style="fill:none;stroke:#00ff00;stroke-width:0.01111111;stroke-miterlimit:4;stroke-dasharray:none;stroke-opacity:1"
     id="path126"
     d="M 3.245,0.135 A 0.135,0.135 0 0 1 3.38,0" />
  <path
     inkscape:connector-curvature="0"
     style="fill:none;stroke:#00ff00;stroke-width:0.01111111;stroke-miterlimit:4;stroke-dasharray:none;stroke-opacity:1"
     id="path128"
     d="M 5.665,0 A 0.135,0.135 0 0 1 5.8,0.135" />
  <path
     inkscape:connector-curvature="0"
     style="fill:none;stroke:#00ff00;stroke-width:0.01111111;stroke-miterlimit:4;stroke-dasharray:none;stroke-opacity:1"
     id="path130"
     d="M 5.8,1.06 A 0.135,0.135 0 0 1 5.665,1.195" />
  <line
     style="fill:none;stroke:#00ff00;stroke-width:0.01111111;stroke-miterlimit:4;stroke-dasharray:none;stroke-opacity:1"
     id="line132"
     y2="0.13500001"
     x2="3.2449999"
     y1="1.0599999"
     x1="3.2449999" />
  <line
     style="fill:none;stroke:#00ff00;stroke-width:0.01111111;stroke-miterlimit:4;stroke-dasharray:none;stroke-opacity:1"
     id="line134"
     y2="1.1950001"
     x2="5.665"
     y1="1.1950001"
     x1="5.665" />
  <line
     style="fill:none;stroke:#00ff00;stroke-width:0.01111111;stroke-miterlimit:4;stroke-dasharray:none;stroke-opacity:1"
     id="line136"
     y2="1.0599999"
     x2="5.8000002"
     y1="0.13499999"
     x1="5.8000002" />
  <line
     style="fill:none;stroke:#00ff00;stroke-width:0.01111111;stroke-miterlimit:4;stroke-dasharray:none;stroke-opacity:1"
     id="line138"
     y2="0.25"
     x2="3.71"
     y1="0.25"
     x1="5.52" />
  <line
     style="fill:none;stroke:#00ff00;stroke-width:0.01111111;stroke-miterlimit:4;stroke-dasharray:none;stroke-opacity:1"
     id="line140"
     y2="0.44999999"
     x2="3.71"
     y1="0.25"
     x1="3.71" />
  <line
     style="fill:none;stroke:#00ff00;stroke-width:0.01111111;stroke-miterlimit:4;stroke-dasharray:none;stroke-opacity:1"
     id="line142"
     y2="0.44999999"
     x2="3.51"
     y1="0.44999999"
     x1="3.71" />
  <line
     style="fill:none;stroke:#00ff00;stroke-width:0.01111111;stroke-miterlimit:4;stroke-dasharray:none;stroke-opacity:1"
     id="line144"
     y2="0.25"
     x2="5.52"
     y1="0.13500001"
     x1="5.52" />
  <line
     style="fill:none;stroke:#00ff00;stroke-width:0.01111111;stroke-miterlimit:4;stroke-dasharray:none;stroke-opacity:1"
     id="line146"
     y2="0"
     x2="5.6550002"
     y1="0"
     x1="5.665" />
  <path
     inkscape:connector-curvature="0"
     style="fill:none;stroke:#00ff00;stroke-width:0.01111111;stroke-miterlimit:4;stroke-dasharray:none;stroke-opacity:1"
     id="path148"
     d="M 5.52,0.135 A 0.135,0.135 0 0 1 5.655,0" />
  <line
     style="fill:none;stroke:#00ff00;stroke-width:0.01111111;stroke-miterlimit:4;stroke-dasharray:none;stroke-opacity:1"
     id="line150"
     y2="0.44999999"
     x2="3.51"
     y1="0.13500001"
     x1="3.51" />
  <line
     style="fill:none;stroke:#00ff00;stroke-width:0.01111111;stroke-miterlimit:4;stroke-dasharray:none;stroke-opacity:1"
     id="line152"
     y2="0"
     x2="3.3800001"
     y1="0"
     x1="3.375" />
  <path
     inkscape:connector-curvature="0"
     style="fill:none;stroke:#00ff00;stroke-width:0.01111111;stroke-miterlimit:4;stroke-dasharray:none;stroke-opacity:1"
     id="path154"
     d="M 3.51,0.135 A 0.135,0.135 0 0 0 3.375,0" />
  <line
     style="fill:none;stroke:#00ff00;stroke-width:0.01111111;stroke-miterlimit:4;stroke-dasharray:none;stroke-opacity:1"
     id="line156"
     y2="1.1950001"
     x2="3.3800001"
     y1="1.1950001"
     x1="5.665" />
  <path
     style="fill:none;fill-rule:evenodd;stroke:#a100fa;stroke-width:0.01111111;stroke-linecap:butt;stroke-linejoin:miter;stroke-miterlimit:4;stroke-dasharray:none;stroke-opacity:1"
     d="m 0.84804524,2.1465681 c -0.0142752,-0.00382 -0.0296183,-0.04673 -0.003991,-0.1135349 0,3e-7 0,0 0,0 0.008326,-0.021965 0.023402,-0.047179 0.0495673,-0.069498 0.0190808,-0.015291 0.0411616,-0.0265 0.0647068,-0.032667 0.0206992,-0.00544 0.0393561,-0.00783 0.055957,-0.00948 0.00223,-2.684e-4 0.00442,-5.213e-4 0.00657,-7.623e-4 0.013555,-0.00153 0.024299,-0.00258 0.033078,-0.00471 0.010803,-0.0024 0.020526,-0.00585 0.028374,-0.010487 0.012509,-0.00655 0.025124,-0.019835 0.036532,-0.032595 0.036762,-0.042363 0.056643,-0.08064 0.077876,-0.074951 0.015121,0.00404 0.029776,0.049937 0.00367,0.1201834 -0.00841,0.023068 -0.02353,0.049743 -0.049828,0.073883 -0.018781,0.016362 -0.041181,0.028928 -0.065905,0.03623 -0.01831,0.00526 -0.035419,0.0081 -0.05106,0.00972 -0.00249,2.598e-4 -0.00491,4.887e-4 -0.00728,6.904e-4 -0.017597,0.00185 -0.0304998,0.00244 -0.0415001,0.00446 -0.0111196,0.00201 -0.020607,0.00446 -0.0280094,0.00823 -0.0114498,0.00482 -0.0233854,0.016156 -0.0341885,0.027264 0,0 0,0 0,0 -0.035555,0.037801 -0.0538046,0.073562 -0.0745629,0.068001 z"
     id="path4142-5"
     inkscape:connector-curvature="0" />
  <path
     style="fill:none;fill-rule:evenodd;stroke:#a100fa;stroke-width:0.01111111;stroke-linecap:butt;stroke-linejoin:miter;stroke-miterlimit:4;stroke-dasharray:none;stroke-opacity:1"
     d="m 0.82516135,1.9453938 c -0.007636,-0.00205 -0.0158524,-0.02501 -0.00213,-0.060766 0,2e-7 0,0 0,0 0.004456,-0.011755 0.0125261,-0.025251 0.0265289,-0.037197 0.0102142,-0.00818 0.0220313,-0.014184 0.0346331,-0.017483 0.0110829,-0.0029 0.0210646,-0.00419 0.0299491,-0.00507 0.001194,-1.434e-4 0.002368,-2.789e-4 0.003517,-4.08e-4 0.007258,-8.186e-4 0.0130025,-0.00137 0.0177047,-0.00252 0.005787,-0.00129 0.0109848,-0.00312 0.0151868,-0.00562 0.006697,-0.0035 0.0134508,-0.010621 0.0195527,-0.017446 0.019676,-0.022673 0.0303161,-0.04316 0.0416806,-0.040114 0.0081,0.00217 0.015938,0.026728 0.00196,0.064324 -0.0045,0.012344 -0.012596,0.026623 -0.026669,0.039544 -0.0100461,0.00876 -0.0220411,0.015484 -0.0352734,0.019392 -0.009794,0.00283 -0.0189573,0.00433 -0.027329,0.0052 -0.001334,1.389e-4 -0.00262,2.615e-4 -0.003895,3.696e-4 -0.009416,9.962e-4 -0.0163245,0.0013 -0.0222121,0.00238 -0.005955,0.00108 -0.0110269,0.00238 -0.0149907,0.0044 -0.006123,0.00259 -0.0125121,0.00865 -0.0182987,0.014591 0,0 0,0 0,0 -0.0190301,0.020232 -0.0287974,0.039373 -0.0399069,0.036396 z"
     id="path4142-5-1"
     inkscape:connector-curvature="0" />
  <path
     style="fill:none;fill-rule:evenodd;stroke:#a100fa;stroke-width:0.01111111;stroke-linecap:butt;stroke-linejoin:miter;stroke-miterlimit:4;stroke-dasharray:none;stroke-opacity:1"
     d="m 1.0330807,2.1854972 c -0.00764,-0.00205 -0.015852,-0.02501 -0.00213,-0.060766 0,2e-7 0,0 0,0 0.00446,-0.011755 0.012526,-0.025251 0.026529,-0.037197 0.010214,-0.00818 0.022031,-0.014184 0.034633,-0.017483 0.011083,-0.0029 0.021065,-0.00419 0.029949,-0.00507 0.00119,-1.434e-4 0.00237,-2.789e-4 0.00352,-4.08e-4 0.00726,-8.186e-4 0.013003,-0.00137 0.017705,-0.00252 0.00579,-0.00129 0.010985,-0.00312 0.015187,-0.00562 0.0067,-0.0035 0.013451,-0.010621 0.019553,-0.017446 0.019676,-0.022673 0.030316,-0.04316 0.041681,-0.040114 0.0081,0.00217 0.015938,0.026728 0.00196,0.064324 -0.0045,0.012344 -0.012596,0.026623 -0.026669,0.039544 -0.010046,0.00876 -0.022041,0.015484 -0.035273,0.019392 -0.00979,0.00283 -0.018957,0.00433 -0.027329,0.0052 -0.00133,1.389e-4 -0.00262,2.614e-4 -0.00389,3.696e-4 -0.00942,9.962e-4 -0.016325,0.0013 -0.022212,0.00238 -0.00596,0.00108 -0.011027,0.00238 -0.014991,0.0044 -0.00612,0.00259 -0.012512,0.00865 -0.018299,0.014591 0,0 0,0 0,0 -0.01903,0.020232 -0.028797,0.039373 -0.039907,0.036396 z"
     id="path4142-5-1-8"
     inkscape:connector-curvature="0" />
</svg>
