<?xml version="1.0" encoding="UTF-8" standalone="no"?>
<svg
   xmlns:dc="http://purl.org/dc/elements/1.1/"
   xmlns:cc="http://creativecommons.org/ns#"
   xmlns:rdf="http://www.w3.org/1999/02/22-rdf-syntax-ns#"
   xmlns:svg="http://www.w3.org/2000/svg"
   xmlns="http://www.w3.org/2000/svg"
   xmlns:sodipodi="http://sodipodi.sourceforge.net/DTD/sodipodi-0.dtd"
   xmlns:inkscape="http://www.inkscape.org/namespaces/inkscape"
   width="5.8in"
   height="2.495in"
   viewBox="0 0 5.8 2.495"
   id="svg2"
   version="1.1"
   inkscape:version="0.91 r13725"
   sodipodi:docname="PiZeroCase.svg">
  <metadata
     id="metadata162">
    <rdf:RDF>
      <cc:Work
         rdf:about="">
        <dc:format>image/svg+xml</dc:format>
        <dc:type
           rdf:resource="http://purl.org/dc/dcmitype/StillImage" />
        <dc:title />
      </cc:Work>
    </rdf:RDF>
  </metadata>
  <defs
     id="defs160">
    <inkscape:path-effect
       effect="skeletal"
       id="path-effect4405"
       is_visible="true"
       pattern="M 0,0 1,0"
       copytype="single_stretched"
       prop_scale="1"
       scale_y_rel="false"
       spacing="0"
       normal_offset="0"
       tang_offset="0"
       prop_units="false"
       vertical_pattern="false"
       fuse_tolerance="0" />
    <inkscape:path-effect
       effect="skeletal"
       id="path-effect4372"
       is_visible="true"
       pattern="M 0,5 C 0,2.24 2.24,0 5,0 7.76,0 10,2.24 10,5 10,7.76 7.76,10 5,10 2.24,10 0,7.76 0,5 Z"
       copytype="single_stretched"
       prop_scale="1"
       scale_y_rel="false"
       spacing="0"
       normal_offset="0"
       tang_offset="0"
       prop_units="false"
       vertical_pattern="false"
       fuse_tolerance="0" />
    <inkscape:path-effect
       effect="powerstroke"
       id="path-effect4368"
       is_visible="true"
       offset_points="0,0.005555555"
       sort_points="true"
       interpolator_type="CubicBezierJohan"
       interpolator_beta="0.2"
       start_linecap_type="zerowidth"
       linejoin_type="round"
       miter_limit="4"
       end_linecap_type="zerowidth"
       cusp_linecap_type="round" />
    <inkscape:path-effect
       fuse_tolerance="0"
       vertical_pattern="false"
       prop_units="false"
       tang_offset="0"
       normal_offset="0"
       spacing="0"
       scale_y_rel="false"
       prop_scale="1"
       copytype="single_stretched"
       pattern="m 0.73340607,4.970459 c 0,-2.76 2.24000003,-5.00000002 5.00000003,-5.00000002 2.76,0 4.9999999,2.24000002 4.9999999,5.00000002 0,2.76 -2.2399999,5 -4.9999999,5 -2.76,0 -5.00000003,-2.24 -5.00000003,-5 z"
       is_visible="true"
       id="path-effect4144"
       effect="skeletal" />
    <inkscape:path-effect
       fuse_tolerance="0"
       vertical_pattern="false"
       prop_units="false"
       tang_offset="0"
       normal_offset="0"
       spacing="0"
       scale_y_rel="false"
       prop_scale="1"
       copytype="single_stretched"
       pattern="M 0,5 C 0,2.24 2.24,0 5,0 7.76,0 10,2.24 10,5 10,7.76 7.76,10 5,10 2.24,10 0,7.76 0,5 Z"
       is_visible="true"
       id="path-effect4140"
       effect="skeletal" />
    <inkscape:path-effect
       fuse_tolerance="0"
       vertical_pattern="false"
       prop_units="false"
       tang_offset="0"
       normal_offset="0"
       spacing="0"
       scale_y_rel="false"
       prop_scale="1"
       copytype="single_stretched"
       pattern="m -18.373737,-28.779581 c 0,-2.76 2.24,-5 5,-5 2.76,0 5.0000002,2.24 5.0000002,5 0,2.76 -2.2400002,5 -5.0000002,5 -2.76,0 -5,-2.24 -5,-5 z"
       is_visible="true"
       id="path-effect4144-9"
       effect="skeletal" />
  </defs>
  <sodipodi:namedview
     pagecolor="#ffffff"
     bordercolor="#666666"
     borderopacity="1"
     objecttolerance="10"
     gridtolerance="10"
     guidetolerance="10"
     inkscape:pageopacity="0"
     inkscape:pageshadow="2"
     inkscape:window-width="1280"
     inkscape:window-height="657"
     id="namedview158"
     showgrid="false"
     showborder="false"
     inkscape:object-paths="false"
     inkscape:object-nodes="true"
     inkscape:zoom="1.1149425"
     inkscape:cx="326.17824"
     inkscape:cy="13.84684"
     inkscape:window-x="-8"
     inkscape:window-y="-8"
     inkscape:window-maximized="1"
     inkscape:current-layer="svg2"
     inkscape:snap-nodes="false"
     inkscape:snap-global="false" />
  <path
     inkscape:connector-curvature="0"
     style="fill:none;stroke:#fc0000;stroke-width:0.01111111;stroke-miterlimit:4;stroke-dasharray:none;stroke-opacity:1;opacity:1"
     id="path28"
     d="m 0.785,2.21 0.475,0 0,-0.475 -0.475,0 0,0.475 z" />
  <circle
     style="fill:none;stroke:#000000;stroke-width:0.01111111;stroke-miterlimit:4;stroke-dasharray:none"
     id="circle6"
     r="0.050000001"
     cy="1.4349999"
     cx="2.4200001" />
  <circle
     style="fill:none;stroke:#000000;stroke-width:0.01111111;stroke-miterlimit:4;stroke-dasharray:none"
     id="circle8"
     r="0.050000001"
     cy="2.3599999"
     cx="2.4200001" />
  <circle
     style="fill:none;stroke:#000000;stroke-width:0.01111111;stroke-miterlimit:4;stroke-dasharray:none"
     id="circle10"
     r="0.050000001"
     cy="1.4349999"
     cx="0.13500001" />
  <circle
     style="fill:none;stroke:#000000;stroke-width:0.01111111;stroke-miterlimit:4;stroke-dasharray:none"
     id="circle12"
     r="0.050000001"
     cy="2.3599999"
     cx="0.13500001" />
  <path
     inkscape:connector-curvature="0"
     style="fill:none;stroke:#00ff00;stroke-width:0.01111111;stroke-miterlimit:4;stroke-dasharray:none;stroke-opacity:1"
     id="path14"
     d="M 2.42,2.495 A 0.135,0.135 0 0 0 2.555,2.36" />
  <path
     inkscape:connector-curvature="0"
     style="fill:none;stroke:#00ff00;stroke-width:0.01111111;stroke-miterlimit:4;stroke-dasharray:none;stroke-opacity:1"
     id="path16"
     d="M 2.555,1.435 A 0.135,0.135 0 0 0 2.42,1.3" />
  <path
     inkscape:connector-curvature="0"
     style="fill:none;stroke:#00ff00;stroke-width:0.01111111;stroke-miterlimit:4;stroke-dasharray:none;stroke-opacity:1"
     id="path18"
     d="M 0.135,1.3 A 0.135,0.135 0 0 0 0,1.435" />
  <path
     inkscape:connector-curvature="0"
     style="fill:none;stroke:#00ff00;stroke-width:0.01111111;stroke-miterlimit:4;stroke-dasharray:none;stroke-opacity:1"
     id="path20"
     d="M 0,2.36 A 0.135,0.135 0 0 0 0.135,2.495" />
  <line
     style="fill:none;stroke:#00ff00;stroke-width:0.01111111;stroke-miterlimit:4;stroke-dasharray:none;stroke-opacity:1"
     id="line22"
     y2="1.4349999"
     x2="2.5550001"
     y1="2.3599999"
     x1="2.5550001" />
  <line
     style="fill:none;stroke:#00ff00;stroke-width:0.01111111;stroke-miterlimit:4;stroke-dasharray:none;stroke-opacity:1"
     id="line24"
     y2="2.4949999"
     x2="0.13500001"
     y1="2.4949999"
     x1="0.13500001" />
  <line
     style="fill:none;stroke:#00ff00;stroke-width:0.01111111;stroke-miterlimit:4;stroke-dasharray:none;stroke-opacity:1"
     id="line26"
     y2="2.3599999"
     x2="0"
     y1="1.4349999"
     x1="0" />
  <line
     style="fill:none;stroke:#00ff00;stroke-width:0.01111111;stroke-miterlimit:4;stroke-dasharray:none;stroke-opacity:1"
     id="line30"
     y2="1.55"
     x2="2.0899999"
     y1="1.55"
     x1="0.28" />
  <line
     style="fill:none;stroke:#00ff00;stroke-width:0.01111111;stroke-miterlimit:4;stroke-dasharray:none;stroke-opacity:1"
     id="line32"
     y2="1.75"
     x2="2.0899999"
     y1="1.55"
     x1="2.0899999" />
  <line
     style="fill:none;stroke:#00ff00;stroke-width:0.01111111;stroke-miterlimit:4;stroke-dasharray:none;stroke-opacity:1"
     id="line34"
     y2="1.75"
     x2="2.29"
     y1="1.75"
     x1="2.0899999" />
  <line
     style="fill:none;stroke:#00ff00;stroke-width:0.01111111;stroke-miterlimit:4;stroke-dasharray:none;stroke-opacity:1"
     id="line36"
     y2="2.1949999"
     x2="0.71499997"
     y1="2.4949999"
     x1="0.71499997" />
  <line
     style="fill:none;stroke:#00ff00;stroke-width:0.01111111;stroke-miterlimit:4;stroke-dasharray:none;stroke-opacity:1"
     id="line38"
     y2="2.1949999"
     x2="0.27000001"
     y1="2.1949999"
     x1="0.71499997" />
  <line
     style="fill:none;stroke:#00ff00;stroke-width:0.01111111;stroke-miterlimit:4;stroke-dasharray:none;stroke-opacity:1"
     id="line40"
     y2="2.4949999"
     x2="0.27000001"
     y1="2.1949999"
     x1="0.27000001" />
  <line
     style="fill:none;stroke:#00ff00;stroke-width:0.01111111;stroke-miterlimit:4;stroke-dasharray:none;stroke-opacity:1"
     id="line42"
     y2="2.4949999"
     x2="0.27000001"
     y1="2.4949999"
     x1="0.13500001" />
  <line
     style="fill:none;stroke:#00ff00;stroke-width:0.01111111;stroke-miterlimit:4;stroke-dasharray:none;stroke-opacity:1"
     id="line44"
     y2="2.4949999"
     x2="2.4200001"
     y1="2.4949999"
     x1="0.71499997" />
  <line
     style="fill:none;stroke:#00ff00;stroke-width:0.01111111;stroke-miterlimit:4;stroke-dasharray:none;stroke-opacity:1"
     id="line46"
     y2="1.55"
     x2="0.28"
     y1="1.4349999"
     x1="0.28" />
  <line
     style="fill:none;stroke:#00ff00;stroke-width:0.01111111;stroke-miterlimit:4;stroke-dasharray:none;stroke-opacity:1"
     id="line48"
     y2="1.3"
     x2="0.145"
     y1="1.3"
     x1="0.13500001" />
  <path
     inkscape:connector-curvature="0"
     style="fill:none;stroke:#00ff00;stroke-width:0.01111111;stroke-miterlimit:4;stroke-dasharray:none;stroke-opacity:1"
     id="path50"
     d="M 0.28,1.435 A 0.135,0.135 0 0 0 0.145,1.3" />
  <line
     style="fill:none;stroke:#00ff00;stroke-width:0.01111111;stroke-miterlimit:4;stroke-dasharray:none;stroke-opacity:1"
     id="line52"
     y2="1.75"
     x2="2.29"
     y1="1.4349999"
     x1="2.29" />
  <line
     style="fill:none;stroke:#00ff00;stroke-width:0.01111111;stroke-miterlimit:4;stroke-dasharray:none;stroke-opacity:1"
     id="line54"
     y2="1.3"
     x2="2.4200001"
     y1="1.3"
     x1="2.425" />
  <path
     inkscape:connector-curvature="0"
     style="fill:none;stroke:#00ff00;stroke-width:0.01111111;stroke-miterlimit:4;stroke-dasharray:none;stroke-opacity:1"
     id="path56"
     d="M 2.29,1.435 A 0.135,0.135 0 0 1 2.425,1.3" />
  <circle
     style="fill:none;stroke:#0080fd;stroke-width:0.01111111;stroke-miterlimit:4;stroke-dasharray:none;stroke-opacity:1"
     id="circle58"
     r="0.12"
     cy="1.4074194"
     cx="0.41964525" />
  <circle
     style="fill:none;stroke:#0080fd;stroke-width:0.01111111;stroke-miterlimit:4;stroke-dasharray:none;stroke-opacity:1"
     id="circle60"
     r="0.12"
     cy="1.4074194"
     cx="0.68542057" />
  <circle
     style="fill:none;stroke:#0080fd;stroke-width:0.01111111;stroke-miterlimit:4;stroke-dasharray:none;stroke-opacity:1"
     id="circle62"
     r="0.12"
     cy="1.4074194"
     cx="0.96168703" />
  <circle
     style="fill:none;stroke:#0080fd;stroke-width:0.01111111;stroke-miterlimit:4;stroke-dasharray:none;stroke-opacity:1"
     id="circle64"
     r="0.12"
     cy="1.4074194"
     cx="1.2274623" />
  <circle
     style="fill:none;stroke:#e08024;stroke-width:0.01111111;stroke-miterlimit:4;stroke-dasharray:none;stroke-opacity:1"
     id="circle66"
     r="0.050000001"
     cy="1.4074194"
     cx="0.41964525" />
  <circle
     style="fill:none;stroke:#e08024;stroke-width:0.01111111;stroke-miterlimit:4;stroke-dasharray:none;stroke-opacity:1"
     id="circle68"
     r="0.050000001"
     cy="1.4074194"
     cx="0.68542057" />
  <circle
     style="fill:none;stroke:#e08024;stroke-width:0.01111111;stroke-miterlimit:4;stroke-dasharray:none;stroke-opacity:1"
     id="circle70"
     r="0.050000001"
     cy="1.4074194"
     cx="0.96168703" />
  <circle
     style="fill:none;stroke:#e08024;stroke-width:0.01111111;stroke-miterlimit:4;stroke-dasharray:none;stroke-opacity:1"
     id="circle72"
     r="0.050000001"
     cy="1.4074194"
     cx="1.2274623" />
  <circle
     style="fill:none;stroke:#000000;stroke-width:0.01111111;stroke-miterlimit:4;stroke-dasharray:none"
     id="circle74"
     r="0.050000001"
     cy="0.13500001"
     cx="2.4200001" />
  <circle
     style="fill:none;stroke:#000000;stroke-width:0.01111111;stroke-miterlimit:4;stroke-dasharray:none"
     id="circle76"
     r="0.050000001"
     cy="1.0599999"
     cx="2.4200001" />
  <circle
     style="fill:none;stroke:#000000;stroke-width:0.01111111;stroke-miterlimit:4;stroke-dasharray:none"
     id="circle78"
     r="0.050000001"
     cy="0.13500001"
     cx="0.13500001" />
  <circle
     style="fill:none;stroke:#000000;stroke-width:0.01111111;stroke-miterlimit:4;stroke-dasharray:none"
     id="circle80"
     r="0.050000001"
     cy="1.0599999"
     cx="0.13500001" />
  <path
     inkscape:connector-curvature="0"
     style="fill:none;stroke:#00ff00;stroke-width:0.01111111;stroke-miterlimit:4;stroke-dasharray:none;stroke-opacity:1"
     id="path82"
     d="M 2.42,1.195 A 0.135,0.135 0 0 0 2.555,1.06" />
  <path
     inkscape:connector-curvature="0"
     style="fill:none;stroke:#00ff00;stroke-width:0.01111111;stroke-miterlimit:4;stroke-dasharray:none;stroke-opacity:1"
     id="path84"
     d="M 2.555,0.135 A 0.135,0.135 0 0 0 2.42,0" />
  <path
     inkscape:connector-curvature="0"
     style="fill:none;stroke:#00ff00;stroke-width:0.01111111;stroke-miterlimit:4;stroke-dasharray:none;stroke-opacity:1"
     id="path86"
     d="M 0.135,0 A 0.135,0.135 0 0 0 0,0.135" />
  <path
     inkscape:connector-curvature="0"
     style="fill:none;stroke:#00ff00;stroke-width:0.01111111;stroke-miterlimit:4;stroke-dasharray:none;stroke-opacity:1"
     id="path88"
     d="M 0,1.06 A 0.135,0.135 0 0 0 0.135,1.195" />
  <line
     style="fill:none;stroke:#00ff00;stroke-width:0.01111111;stroke-miterlimit:4;stroke-dasharray:none;stroke-opacity:1"
     id="line90"
     y2="0.13500001"
     x2="2.5550001"
     y1="1.0599999"
     x1="2.5550001" />
  <line
     style="fill:none;stroke:#00ff00;stroke-width:0.01111111;stroke-miterlimit:4;stroke-dasharray:none;stroke-opacity:1"
     id="line92"
     y2="1.1950001"
     x2="0.13500001"
     y1="1.1950001"
     x1="0.13500001" />
  <line
     style="fill:none;stroke:#00ff00;stroke-width:0.01111111;stroke-miterlimit:4;stroke-dasharray:none;stroke-opacity:1"
     id="line94"
     y2="1.0599999"
     x2="0"
     y1="0.13499999"
     x1="0" />
  <line
     style="fill:none;stroke:#00ff00;stroke-width:0.01111111;stroke-miterlimit:4;stroke-dasharray:none;stroke-opacity:1"
     id="line96"
     y2="0.25"
     x2="2.0899999"
     y1="0.25"
     x1="0.28" />
  <line
     style="fill:none;stroke:#00ff00;stroke-width:0.01111111;stroke-miterlimit:4;stroke-dasharray:none;stroke-opacity:1"
     id="line98"
     y2="0.44999999"
     x2="2.0899999"
     y1="0.25"
     x1="2.0899999" />
  <line
     style="fill:none;stroke:#00ff00;stroke-width:0.01111111;stroke-miterlimit:4;stroke-dasharray:none;stroke-opacity:1"
     id="line100"
     y2="0.44999999"
     x2="2.29"
     y1="0.44999999"
     x1="2.0899999" />
  <line
     style="fill:none;stroke:#00ff00;stroke-width:0.01111111;stroke-miterlimit:4;stroke-dasharray:none;stroke-opacity:1"
     id="line102"
     y2="0.25"
     x2="0.28"
     y1="0.13500001"
     x1="0.28" />
  <line
     style="fill:none;stroke:#00ff00;stroke-width:0.01111111;stroke-miterlimit:4;stroke-dasharray:none;stroke-opacity:1"
     id="line104"
     y2="0"
     x2="0.145"
     y1="0"
     x1="0.13500001" />
  <path
     inkscape:connector-curvature="0"
     style="fill:none;stroke:#00ff00;stroke-width:0.01111111;stroke-miterlimit:4;stroke-dasharray:none;stroke-opacity:1"
     id="path106"
     d="M 0.28,0.135 A 0.135,0.135 0 0 0 0.145,0" />
  <line
     style="fill:none;stroke:#00ff00;stroke-width:0.01111111;stroke-miterlimit:4;stroke-dasharray:none;stroke-opacity:1"
     id="line108"
     y2="0.44999999"
     x2="2.29"
     y1="0.13500001"
     x1="2.29" />
  <line
     style="fill:none;stroke:#00ff00;stroke-width:0.01111111;stroke-miterlimit:4;stroke-dasharray:none;stroke-opacity:1"
     id="line110"
     y2="0"
     x2="2.4200001"
     y1="0"
     x1="2.425" />
  <path
     inkscape:connector-curvature="0"
     style="fill:none;stroke:#00ff00;stroke-width:0.01111111;stroke-miterlimit:4;stroke-dasharray:none;stroke-opacity:1"
     id="path112"
     d="M 2.29,0.135 A 0.135,0.135 0 0 1 2.425,0" />
  <line
     style="fill:none;stroke:#00ff00;stroke-width:0.01111111;stroke-miterlimit:4;stroke-dasharray:none;stroke-opacity:1"
     id="line114"
     y2="1.1950001"
     x2="2.4200001"
     y1="1.1950001"
     x1="0.13500001" />
  <circle
     style="fill:none;stroke:#000000;stroke-width:0.01111111;stroke-miterlimit:4;stroke-dasharray:none"
     id="circle116"
     r="0.050000001"
     cy="0.13500001"
     cx="3.3800001" />
  <circle
     style="fill:none;stroke:#000000;stroke-width:0.01111111;stroke-miterlimit:4;stroke-dasharray:none"
     id="circle118"
     r="0.050000001"
     cy="1.0599999"
     cx="3.3800001" />
  <circle
     style="fill:none;stroke:#000000;stroke-width:0.01111111;stroke-miterlimit:4;stroke-dasharray:none"
     id="circle120"
     r="0.050000001"
     cy="0.13500001"
     cx="5.665" />
  <circle
     style="fill:none;stroke:#000000;stroke-width:0.01111111;stroke-miterlimit:4;stroke-dasharray:none"
     id="circle122"
     r="0.050000001"
     cy="1.0599999"
     cx="5.665" />
  <path
     inkscape:connector-curvature="0"
     style="fill:none;stroke:#00ff00;stroke-width:0.01111111;stroke-miterlimit:4;stroke-dasharray:none;stroke-opacity:1"
     id="path124"
     d="M 3.38,1.195 A 0.135,0.135 0 0 1 3.245,1.06" />
  <path
     inkscape:connector-curvature="0"
     style="fill:none;stroke:#00ff00;stroke-width:0.01111111;stroke-miterlimit:4;stroke-dasharray:none;stroke-opacity:1"
     id="path126"
     d="M 3.245,0.135 A 0.135,0.135 0 0 1 3.38,0" />
  <path
     inkscape:connector-curvature="0"
     style="fill:none;stroke:#00ff00;stroke-width:0.01111111;stroke-miterlimit:4;stroke-dasharray:none;stroke-opacity:1"
     id="path128"
     d="M 5.665,0 A 0.135,0.135 0 0 1 5.8,0.135" />
  <path
     inkscape:connector-curvature="0"
     style="fill:none;stroke:#00ff00;stroke-width:0.01111111;stroke-miterlimit:4;stroke-dasharray:none;stroke-opacity:1"
     id="path130"
     d="M 5.8,1.06 A 0.135,0.135 0 0 1 5.665,1.195" />
  <line
     style="fill:none;stroke:#00ff00;stroke-width:0.01111111;stroke-miterlimit:4;stroke-dasharray:none;stroke-opacity:1"
     id="line132"
     y2="0.13500001"
     x2="3.2449999"
     y1="1.0599999"
     x1="3.2449999" />
  <line
     style="fill:none;stroke:#00ff00;stroke-width:0.01111111;stroke-miterlimit:4;stroke-dasharray:none;stroke-opacity:1"
     id="line134"
     y2="1.1950001"
     x2="5.665"
     y1="1.1950001"
     x1="5.665" />
  <line
     style="fill:none;stroke:#00ff00;stroke-width:0.01111111;stroke-miterlimit:4;stroke-dasharray:none;stroke-opacity:1"
     id="line136"
     y2="1.0599999"
     x2="5.8000002"
     y1="0.13499999"
     x1="5.8000002" />
  <line
     style="fill:none;stroke:#00ff00;stroke-width:0.01111111;stroke-miterlimit:4;stroke-dasharray:none;stroke-opacity:1"
     id="line138"
     y2="0.25"
     x2="3.71"
     y1="0.25"
     x1="5.52" />
  <line
     style="fill:none;stroke:#00ff00;stroke-width:0.01111111;stroke-miterlimit:4;stroke-dasharray:none;stroke-opacity:1"
     id="line140"
     y2="0.44999999"
     x2="3.71"
     y1="0.25"
     x1="3.71" />
  <line
     style="fill:none;stroke:#00ff00;stroke-width:0.01111111;stroke-miterlimit:4;stroke-dasharray:none;stroke-opacity:1"
     id="line142"
     y2="0.44999999"
     x2="3.51"
     y1="0.44999999"
     x1="3.71" />
  <line
     style="fill:none;stroke:#00ff00;stroke-width:0.01111111;stroke-miterlimit:4;stroke-dasharray:none;stroke-opacity:1"
     id="line144"
     y2="0.25"
     x2="5.52"
     y1="0.13500001"
     x1="5.52" />
  <line
     style="fill:none;stroke:#00ff00;stroke-width:0.01111111;stroke-miterlimit:4;stroke-dasharray:none;stroke-opacity:1"
     id="line146"
     y2="0"
     x2="5.6550002"
     y1="0"
     x1="5.665" />
  <path
     inkscape:connector-curvature="0"
     style="fill:none;stroke:#00ff00;stroke-width:0.01111111;stroke-miterlimit:4;stroke-dasharray:none;stroke-opacity:1"
     id="path148"
     d="M 5.52,0.135 A 0.135,0.135 0 0 1 5.655,0" />
  <line
     style="fill:none;stroke:#00ff00;stroke-width:0.01111111;stroke-miterlimit:4;stroke-dasharray:none;stroke-opacity:1"
     id="line150"
     y2="0.44999999"
     x2="3.51"
     y1="0.13500001"
     x1="3.51" />
  <line
     style="fill:none;stroke:#00ff00;stroke-width:0.01111111;stroke-miterlimit:4;stroke-dasharray:none;stroke-opacity:1"
     id="line152"
     y2="0"
     x2="3.3800001"
     y1="0"
     x1="3.375" />
  <path
     inkscape:connector-curvature="0"
     style="fill:none;stroke:#00ff00;stroke-width:0.01111111;stroke-miterlimit:4;stroke-dasharray:none;stroke-opacity:1"
     id="path154"
     d="M 3.51,0.135 A 0.135,0.135 0 0 0 3.375,0" />
  <line
     style="fill:none;stroke:#00ff00;stroke-width:0.01111111;stroke-miterlimit:4;stroke-dasharray:none;stroke-opacity:1"
     id="line156"
     y2="1.1950001"
     x2="3.3800001"
     y1="1.1950001"
     x1="5.665" />
  <g
     id="layer1"
     inkscape:label="Layer 1"
     transform="matrix(0.01111111,0,0,0.01111111,-0.32472206,-3.7779517)"
     style="opacity:1;fill:none;stroke:#a100fa;stroke-width:1.00000012;stroke-miterlimit:4;stroke-dasharray:none;stroke-opacity:1">
    <path
       sodipodi:nodetypes="cc"
       inkscape:connector-curvature="0"
       inkscape:original-d="m 106.4477,532.33266 c 7.07989,-26.42251 22.03357,-1.40384 29.58457,-29.58457"
       inkscape:path-effect="#path-effect4144"
       id="path4142"
       d="m 106.4477,532.33266 c -1.21106,-0.3245 -2.51307,-3.96494 -0.33815,-9.63324 0,0 0,0 0,0 0.70589,-1.86378 1.98566,-4.00308 4.20576,-5.89696 1.61908,-1.29681 3.49255,-2.2486 5.4904,-2.77164 1.75634,-0.46022 3.33928,-0.66386 4.74787,-0.80342 0.18969,-0.0228 0.37522,-0.0442 0.55714,-0.0647 1.14932,-0.12991 2.06176,-0.21837 2.80669,-0.399 0.9166,-0.20506 1.74159,-0.49658 2.40751,-0.89051 1.06175,-0.55567 2.13172,-1.68292 3.09967,-2.76562 3.11925,-3.59448 4.80594,-6.84221 6.60768,-6.35944 1.28314,0.34382 2.52649,4.23721 0.3101,10.19741 -0.71423,1.95712 -1.99642,4.22054 -4.22787,6.26887 -1.59354,1.38834 -3.49405,2.45463 -5.59194,3.07411 -1.55365,0.44788 -3.00523,0.68622 -4.33249,0.82496 -0.21074,0.022 -0.41651,0.0414 -0.61701,0.0586 -1.4931,0.15798 -2.58788,0.20592 -3.5213,0.37903 -0.94433,0.17098 -1.74854,0.37813 -2.37655,0.69848 -0.9707,0.40938 -1.98418,1.37078 -2.90095,2.31335 0,0 0,0 0,0 -3.01678,3.20727 -4.56532,6.24171 -6.32656,5.76979 z"
       style="fill:none;fill-rule:evenodd;stroke:#a100fa;stroke-width:1.00000012;stroke-linecap:butt;stroke-linejoin:miter;stroke-miterlimit:4;stroke-dasharray:none;stroke-opacity:1" />
    <path
       inkscape:connector-curvature="0"
       id="path4142-5"
       d="m 103.00763,515.77592 c -0.83506,-0.22376 -1.73284,-2.73395 -0.23316,-6.64243 0,2e-5 0,0 0,0 0.48672,-1.28512 1.36918,-2.76025 2.9,-4.06614 1.1164,-0.89419 2.40823,-1.55047 3.7858,-1.91113 1.21105,-0.31733 2.30254,-0.45775 3.2738,-0.55398 0.13086,-0.0157 0.25874,-0.0305 0.38417,-0.0446 0.7925,-0.0895 1.42165,-0.15058 1.93531,-0.27513 0.63201,-0.1414 1.20087,-0.34239 1.66005,-0.61403 0.73211,-0.38316 1.46989,-1.16043 2.13732,-1.90699 2.15081,-2.4785 3.31385,-4.71791 4.5562,-4.38502 0.88477,0.23708 1.74209,2.92168 0.21382,7.03143 -0.49248,1.3495 -1.37659,2.9102 -2.91525,4.32259 -1.09879,0.9573 -2.40926,1.69254 -3.85582,2.11969 -1.07129,0.30883 -2.0722,0.47317 -2.98739,0.56884 -0.14536,0.0152 -0.28719,0.0286 -0.42544,0.0404 -1.02954,0.10888 -1.78443,0.14199 -2.42804,0.26136 -0.65115,0.11796 -1.20568,0.26073 -1.63872,0.48163 -0.66932,0.28228 -1.36815,0.94519 -2.00029,1.59511 0,0 0,0 0,0 -2.08016,2.21153 -3.14793,4.30386 -4.36236,3.97846 z"
       style="fill:none;fill-rule:evenodd;stroke:#a100fa;stroke-width:1.00000012;stroke-linecap:butt;stroke-linejoin:miter;stroke-miterlimit:4;stroke-dasharray:none;stroke-opacity:1" />
    <path
       inkscape:connector-curvature="0"
       id="path4142-5-1"
       d="m 119.07906,539.70445 c -0.83506,-0.22376 -1.73284,-2.73395 -0.23316,-6.64243 0,2e-5 0,0 0,0 0.48672,-1.28512 1.36918,-2.76025 2.9,-4.06614 1.1164,-0.89419 2.40823,-1.55047 3.7858,-1.91113 1.21105,-0.31733 2.30254,-0.45775 3.2738,-0.55398 0.13086,-0.0157 0.25874,-0.0305 0.38417,-0.0446 0.7925,-0.0895 1.42165,-0.15058 1.93531,-0.27513 0.63201,-0.1414 1.20087,-0.34239 1.66005,-0.61403 0.73211,-0.38316 1.46989,-1.16043 2.13732,-1.90699 2.15081,-2.4785 3.31385,-4.71791 4.5562,-4.38502 0.88477,0.23708 1.74209,2.92168 0.21382,7.03143 -0.49248,1.3495 -1.37659,2.9102 -2.91525,4.32259 -1.09879,0.9573 -2.40926,1.69254 -3.85582,2.11969 -1.07129,0.30883 -2.0722,0.47317 -2.98739,0.56884 -0.14536,0.0152 -0.28719,0.0286 -0.42544,0.0404 -1.02954,0.10888 -1.78443,0.14199 -2.42804,0.26136 -0.65115,0.11796 -1.20568,0.26073 -1.63872,0.48163 -0.66932,0.28228 -1.36815,0.94519 -2.00029,1.59511 0,0 0,0 0,0 -2.08016,2.21153 -3.14793,4.30386 -4.36236,3.97846 z"
       style="fill:none;fill-rule:evenodd;stroke:#a100fa;stroke-width:1.00000012;stroke-linecap:butt;stroke-linejoin:miter;stroke-miterlimit:4;stroke-dasharray:none;stroke-opacity:1" />
  </g>
</svg>
